# File created by Blade
# Date/Time:  Wed Jan 21 17:41:14 2015
# Frame Rate: 120.000 fps
#------------------------------------------------------
:FULLY-SPECIFIED
:DEGREES
1762
root 7.865202 33.560874 -20.280545 -581.316633 82.747695 -586.597111
Spine -3.937414 -4.497950 -3.458481
Head 0.473568 -2.844054 1.204918
LeftShoulder -1.937543 -38.885503 16.634605
LeftArm 14.467774 8.233930 -0.724520
LeftForeArm 6.705061 -0.000000 -0.267106
LeftHand -1.718084 0.000000 10.947427
LeftHandThumb1 -26.253704 0.000000 33.147579
RightShoulder -5.670784 4.148287 -13.891444
RightArm 3.175646 45.061982 3.340226
RightForeArm -34.091692 0.000000 2.881737
RightHand -9.196214 -0.000000 -10.335815
RightHandThumb1 -24.326973 -0.000000 -32.862282
LeftUpLeg 13.796630 11.923831 -4.584692
LeftLeg 0.993450 -0.000000 -0.000000
LeftFoot -37.131983 27.049100 -16.925806
LeftToeBase 23.883229 -0.000000 -0.000000
RightUpLeg -47.514030 -6.593461 -3.945665
RightLeg 55.374357 -0.000000 -0.000000
RightFoot -19.645455 -20.018783 23.481845
RightToeBase 12.357216 -0.000000 -0.000000
1763
root 7.857337 33.582767 -20.228348 -579.527362 82.854001 -584.732058
Spine -3.906201 -4.794662 -3.138545
Head 0.749024 -2.651344 1.028935
LeftShoulder -2.195210 -38.258737 16.449853
LeftArm 13.530445 8.130116 -1.308840
LeftForeArm 6.738538 -0.000000 -0.287820
LeftHand -1.806779 0.000000 10.782446
LeftHandThumb1 -26.253704 0.000000 33.147579
RightShoulder -5.742745 3.620665 -13.504039
RightArm 3.015110 45.542290 3.990751
RightForeArm -33.923299 -0.000000 2.734665
RightHand -9.284105 -0.000000 -10.127814
RightHandThumb1 -24.326973 -0.000000 -32.862282
LeftUpLeg 13.805796 11.990936 -4.221337
LeftLeg 1.037872 -0.000000 -0.000000
LeftFoot -37.064250 26.994781 -16.856614
LeftToeBase 23.911623 -0.000000 -0.000000
RightUpLeg -46.731181 -5.926072 -4.146353
RightLeg 56.602581 -0.000000 -0.000000
RightFoot -20.634730 -21.187481 23.287191
RightToeBase 12.499188 -0.000000 -0.000000
1764
root 7.853536 33.600974 -20.175361 -577.470840 82.888637 -582.687794
Spine -3.995053 -5.111425 -2.856713
Head 1.085642 -2.474351 0.929466
LeftShoulder -2.427371 -37.613681 16.251695
LeftArm 12.692050 8.034218 -1.872454
LeftForeArm 6.600565 -0.000000 -0.392218
LeftHand -1.881578 -0.000000 10.438465
LeftHandThumb1 -26.253704 0.000000 33.147579
RightShoulder -5.851824 3.152379 -13.105060
RightArm 2.864908 45.844522 4.588930
RightForeArm -33.650842 0.000000 2.676106
RightHand -9.359222 -0.000000 -9.457271
RightHandThumb1 -24.326973 -0.000000 -32.862282
LeftUpLeg 13.734629 12.048700 -3.885002
LeftLeg 1.076327 -0.000000 -0.000000
LeftFoot -36.986017 26.923961 -16.761196
LeftToeBase 23.887121 -0.000000 -0.000000
RightUpLeg -45.994270 -5.317728 -4.348373
RightLeg 57.696715 -0.000000 -0.000000
RightFoot -21.684939 -22.281886 23.156286
RightToeBase 12.481445 -0.000000 -0.000000
1765
root 7.853070 33.615808 -20.119764 -575.314164 82.854242 -580.631746
Spine -4.197303 -5.536259 -2.620082
Head 1.422973 -2.190671 0.862815
LeftShoulder -2.700912 -37.080838 16.098298
LeftArm 11.859095 7.973032 -2.393000
LeftForeArm 6.578482 -0.000000 -0.463369
LeftHand -1.977032 -0.000000 10.273934
LeftHandThumb1 -26.253704 0.000000 33.147579
RightShoulder -5.941323 2.809612 -12.693817
RightArm 2.778653 45.829227 5.207923
RightForeArm -33.246327 -0.000000 2.649481
RightHand -9.335795 -0.000000 -9.028418
RightHandThumb1 -24.326973 -0.000000 -32.862282
LeftUpLeg 13.602858 12.122054 -3.574110
LeftLeg 1.068559 -0.000000 -0.000000
LeftFoot -36.869284 26.787788 -16.611926
LeftToeBase 23.923434 -0.000000 -0.000000
RightUpLeg -45.302770 -4.754438 -4.558430
RightLeg 58.655925 -0.000000 -0.000000
RightFoot -22.688196 -23.321737 23.145831
RightToeBase 12.958279 -0.000000 -0.000000
1766
root 7.856704 33.627198 -20.062716 -573.193335 82.794070 -578.721178
Spine -4.550877 -5.938297 -2.410073
Head 1.813422 -2.009190 0.841681
LeftShoulder -2.999468 -36.532273 15.959444
LeftArm 11.181890 7.777175 -2.927221
LeftForeArm 6.538870 0.000000 -0.662737
LeftHand -1.863230 -0.000000 10.103119
LeftHandThumb1 -26.253704 0.000000 33.147579
RightShoulder -6.037855 2.404177 -12.325108
RightArm 2.664357 45.828487 5.871332
RightForeArm -32.981872 0.000000 2.693125
RightHand -9.506305 0.000000 -9.152480
RightHandThumb1 -24.326973 -0.000000 -32.862282
LeftUpLeg 13.355781 12.138702 -3.309165
LeftLeg 1.096150 -0.000000 -0.000000
LeftFoot -36.686636 26.656696 -16.419038
LeftToeBase 23.741972 -0.000000 -0.000000
RightUpLeg -44.680124 -4.203386 -4.778251
RightLeg 59.465749 -0.000000 -0.000000
RightFoot -23.530941 -24.190403 23.032006
RightToeBase 13.066860 -0.000000 -0.000000
1767
root 7.866187 33.636470 -20.003280 -571.086062 82.725795 -576.875682
Spine -4.974257 -6.316825 -2.199842
Head 2.232833 -1.821213 0.903671
LeftShoulder -3.292296 -36.141824 15.809187
LeftArm 10.550492 7.636795 -3.422858
LeftForeArm 6.541319 0.000000 -0.824258
LeftHand -1.973636 -0.000000 9.734171
LeftHandThumb1 -26.253704 0.000000 33.147579
RightShoulder -6.180055 2.132509 -11.985041
RightArm 2.652784 45.770666 6.578710
RightForeArm -32.597451 -0.000000 2.598111
RightHand -9.396616 -0.000000 -9.260812
RightHandThumb1 -24.326973 -0.000000 -32.862282
LeftUpLeg 13.111477 12.126997 -3.059707
LeftLeg 1.022498 -0.000000 -0.000000
LeftFoot -36.575901 26.568139 -16.333463
LeftToeBase 23.755989 -0.000000 -0.000000
RightUpLeg -44.075882 -3.691507 -4.953563
RightLeg 60.087912 -0.000000 -0.000000
RightFoot -24.328858 -24.956969 22.905941
RightToeBase 13.644029 -0.000000 -0.000000
1768
root 7.881451 33.642695 -19.941737 -569.302391 82.658327 -575.424081
Spine -5.491323 -6.669595 -2.022605
Head 2.645902 -1.666149 0.933847
LeftShoulder -3.673182 -35.692836 15.738038
LeftArm 10.023201 7.285473 -3.987098
LeftForeArm 6.428195 -0.000000 -0.982976
LeftHand -1.966549 -0.000000 9.881542
LeftHandThumb1 -26.253704 0.000000 33.147579
RightShoulder -6.285789 1.811158 -11.663594
RightArm 2.619990 45.812360 7.247985
RightForeArm -32.436039 -0.000000 2.481785
RightHand -9.270684 0.000000 -9.429632
RightHandThumb1 -24.326973 -0.000000 -32.862282
LeftUpLeg 12.824753 12.223595 -2.826087
LeftLeg 0.922847 -0.000000 -0.000000
LeftFoot -36.551139 26.322733 -16.344251
LeftToeBase 23.972316 -0.000000 -0.000000
RightUpLeg -43.506942 -3.148269 -5.152153
RightLeg 60.528812 -0.000000 -0.000000
RightFoot -24.978415 -25.459837 23.014218
RightToeBase 13.809152 -0.000000 -0.000000
1769
root 7.902187 33.646704 -19.870925 -567.234964 82.626184 -573.751867
Spine -6.090107 -6.930050 -1.789958
Head 3.058621 -1.584166 0.966445
LeftShoulder -3.892122 -35.501934 15.622200
LeftArm 9.339933 7.114267 -4.507560
LeftForeArm 6.428282 0.000000 -1.051473
LeftHand -2.008431 -0.000000 9.885947
LeftHandThumb1 -26.253704 0.000000 33.147579
RightShoulder -6.451390 1.534337 -11.336913
RightArm 2.560145 45.852359 7.826441
RightForeArm -32.378748 0.000000 2.400360
RightHand -9.239556 -0.000000 -9.470395
RightHandThumb1 -24.326973 -0.000000 -32.862282
LeftUpLeg 12.494743 12.197294 -2.576997
LeftLeg 0.796294 -0.000000 -0.000000
LeftFoot -36.361638 26.327001 -16.170167
LeftToeBase 23.761245 -0.000000 -0.000000
RightUpLeg -42.976712 -2.627869 -5.234283
RightLeg 60.742321 -0.000000 -0.000000
RightFoot -25.460884 -25.896561 23.292086
RightToeBase 13.772624 -0.000000 -0.000000
1770
root 7.932951 33.648810 -19.798276 -565.231456 82.655786 -572.152665
Spine -6.709320 -7.166662 -1.498184
Head 3.431642 -1.461844 0.910837
LeftShoulder -4.142286 -35.328701 15.513320
LeftArm 8.642125 7.035952 -4.974636
LeftForeArm 6.271152 0.000000 -1.183310
LeftHand -1.952826 -0.000000 10.058340
LeftHandThumb1 -26.253704 0.000000 33.147579
RightShoulder -6.607681 1.348256 -11.030607
RightArm 2.575944 45.812371 8.380542
RightForeArm -32.395906 -0.000000 2.350994
RightHand -9.323901 0.000000 -9.463564
RightHandThumb1 -24.326973 -0.000000 -32.862282
LeftUpLeg 12.189105 12.178344 -2.314128
LeftLeg 0.637258 -0.000000 -0.000000
LeftFoot -36.280433 26.325501 -16.109759
LeftToeBase 23.729100 -0.000000 -0.000000
RightUpLeg -42.395487 -2.105333 -5.240320
RightLeg 60.700239 -0.000000 -0.000000
RightFoot -25.634372 -26.267849 23.481758
RightToeBase 13.824690 -0.000000 -0.000000
1771
root 7.973043 33.647223 -19.722130 -563.366432 82.703784 -570.666854
Spine -7.288185 -7.347625 -1.219746
Head 3.763208 -1.324805 0.887498
LeftShoulder -4.383562 -34.975336 15.403352
LeftArm 8.001568 6.722255 -5.441873
LeftForeArm 6.088604 -0.000000 -1.289171
LeftHand -2.191716 -0.000000 10.060796
LeftHandThumb1 -26.253704 0.000000 33.147579
RightShoulder -6.779194 1.233590 -10.738810
RightArm 2.544762 45.709255 8.878737
RightForeArm -32.442806 -0.000000 2.361674
RightHand -9.350018 0.000000 -9.409357
RightHandThumb1 -24.326973 -0.000000 -32.862282
LeftUpLeg 11.980032 12.059528 -2.074840
LeftLeg 0.360127 -0.000000 -0.000000
LeftFoot -36.211792 26.482733 -16.116926
LeftToeBase 23.740222 -0.000000 -0.000000
RightUpLeg -41.761451 -1.641503 -5.191300
RightLeg 60.446774 -0.000000 -0.000000
RightFoot -25.462034 -26.559265 23.714309
RightToeBase 14.083877 -0.000000 -0.000000
1772
root 8.025544 33.644875 -19.638319 -561.342852 82.848668 -568.987531
Spine -7.810255 -7.414950 -0.892304
Head 4.012303 -1.225449 0.880078
LeftShoulder -4.594968 -34.617418 15.314410
LeftArm 7.389037 6.291269 -5.924106
LeftForeArm 6.224688 -0.000000 -1.545519
LeftHand -2.259366 -0.000000 10.613162
LeftHandThumb1 -26.253704 0.000000 33.147579
RightShoulder -7.041926 1.097745 -10.378953
RightArm 2.625156 45.592729 9.343271
RightForeArm -32.338293 -0.000000 2.441483
RightHand -9.479640 0.000000 -9.337444
RightHandThumb1 -24.326973 -0.000000 -32.862282
LeftUpLeg 11.828735 12.065571 -1.743971
LeftLeg 0.090880 -0.000000 -0.000000
LeftFoot -36.149222 26.595958 -16.135081
LeftToeBase 23.640546 -0.000000 -0.000000
RightUpLeg -41.023944 -1.149388 -5.027014
RightLeg 59.910032 -0.000000 -0.000000
RightFoot -25.141908 -26.546341 24.108001
RightToeBase 14.549931 -0.000000 -0.000000
1773
root 8.092663 33.639107 -19.552342 -559.338759 83.045927 -567.294999
Spine -8.294088 -7.523216 -0.529272
Head 4.215985 -0.991682 0.862149
LeftShoulder -4.899825 -34.382897 15.268034
LeftArm 6.716026 6.150753 -6.269172
LeftForeArm 6.099244 -0.000000 -1.688295
LeftHand -2.348197 -0.000000 10.627429
LeftHandThumb1 -26.253704 0.000000 33.147579
RightShoulder -7.234030 1.063295 -10.101269
RightArm 2.720147 45.515259 9.887097
RightForeArm -32.313567 -0.000000 2.551124
RightHand -9.587128 -0.000000 -9.291551
RightHandThumb1 -24.326973 -0.000000 -32.862282
LeftUpLeg 11.723927 12.093643 -1.392596
LeftLeg -0.144848 -0.000000 0.000000
LeftFoot -36.121965 26.716478 -16.146221
LeftToeBase 23.674115 -0.000000 -0.000000
RightUpLeg -40.192971 -0.674476 -4.798101
RightLeg 59.132511 -0.000000 -0.000000
RightFoot -24.756404 -26.117765 24.498620
RightToeBase 15.126526 -0.000000 -0.000000
